 <svg  version="1.0" xmlns="http://www.w3.org/2000/svg"  width="300.000000pt" height="300.000000pt" viewBox="0 0 300.000000 300.000000"  preserveAspectRatio="xMidYMid meet">  <g transform="translate(0.000000,300.000000) scale(0.050000,-0.050000)" fill="#ffffff" stroke="none"> <path d="M3100 5981 c0 -10 9 -24 20 -31 52 -32 11 -45 -63 -19 -138 49 -207 38 -298 -45 -81 -72 -83 -73 -181 -53 -161 33 -342 -79 -312 -193 8 -31 -3 -43 -52 -56 -80 -21 -154 -154 -154 -278 0 -70 -14 -107 -67 -177 -82 -107 -121 -373 -67 -456 22 -33 31 -126 37 -356 l7 -310 65 -74 c97 -111 89 -124 -23 -35 -227 181 -286 -195 -100 -629 85 -198 145 -258 241 -240 50 10 69 4 84 -24 74 -138 90 -935 20 -997 -24 -21 -68 -92 -98 -158 -86 -189 -195 -251 -960 -549 -590 -230 -559 -217 -559 -239 0 -11 75 -88 167 -172 624 -571 1412 -890 2200 -890 l104 0 36 105 c241 688 1024 964 1768 625 l106 -48 74 63 c135 113 245 223 245 244 0 12 -173 101 -385 199 -625 289 -685 330 -792 546 -34 67 -71 129 -83 136 -30 18 -25 470 5 523 14 23 58 100 98 170 41 70 93 190 116 266 29 96 60 155 101 190 46 40 66 82 89 191 17 77 44 203 61 280 57 257 42 414 -37 384 -57 -22 -94 -108 -123 -286 -164 -1007 -504 -1399 -1093 -1261 -297 70 -565 390 -649 776 -18 81 -68 223 -112 315 -44 93 -89 219 -100 280 -17 94 -37 152 -92 267 -15 31 71 14 100 -20 17 -19 51 -98 75 -174 108 -338 456 -452 696 -227 67 64 78 27 18 -59 -112 -162 -93 -247 76 -343 128 -72 195 -78 266 -22 28 22 62 40 77 40 78 0 113 175 57 290 l-29 60 8 -60 c5 -33 14 -78 21 -101 22 -68 -197 -108 -288 -52 -52 31 -78 36 -117 21 -66 -25 -91 1 -65 70 16 42 30 52 60 42 58 -18 81 45 83 234 3 230 15 265 94 272 71 7 79 -4 133 -196 125 -449 647 -445 781 6 16 55 52 129 80 165 57 76 61 103 22 147 -22 25 -25 53 -11 122 9 50 18 173 18 275 1 124 12 212 34 268 33 81 32 86 -12 169 -34 65 -42 104 -33 156 8 42 5 74 -9 82 -12 8 -19 43 -16 77 7 85 -8 104 -136 177 -68 38 -118 82 -130 114 -11 29 -55 95 -99 147 -44 52 -89 122 -101 155 -18 51 -26 57 -51 37 -24 -20 -36 -17 -63 16 -42 54 -117 99 -193 116 l-60 14 45 -48 c65 -69 55 -81 -31 -37 -159 81 -544 140 -544 83z m653 -317 c88 -46 247 -211 247 -258 0 -20 -23 -11 -75 29 -168 132 -183 128 -134 -33 17 -55 26 -59 -191 88 l-148 100 76 6 c78 7 81 14 42 108 -17 42 52 26 183 -40z m-281 -185 c190 -91 229 -187 57 -139 -74 21 -96 21 -108 1 -12 -18 -42 -11 -123 30 l-108 55 57 19 c42 15 54 29 47 57 -14 54 28 48 178 -23z m-272 -169 c33 -17 69 -49 81 -73 26 -47 21 -46 -96 23 -122 72 -109 114 15 50z m50 -340 c177 -63 245 -63 330 0 116 86 231 56 451 -116 58 -46 125 -97 148 -114 32 -24 44 -61 54 -175 9 -107 25 -162 60 -209 49 -66 98 -211 79 -231 -6 -6 -68 -2 -137 9 -83 14 -103 21 -60 23 78 4 81 21 16 82 -98 92 -468 20 -526 -103 -41 -85 -318 -81 -348 5 -75 215 -697 247 -697 36 0 -28 -15 -37 -61 -37 -44 0 -57 7 -46 25 8 14 40 65 71 114 44 70 56 113 56 201 0 104 5 117 80 190 57 56 80 95 80 137 0 171 211 247 450 163z m-290 -790 c21 -13 -14 -19 -116 -20 -93 0 -142 7 -134 20 16 26 210 26 250 0z m-167 -142 c-46 -24 -72 -51 -66 -67 5 -14 0 -36 -13 -49 -16 -16 0 -22 62 -22 46 0 84 -9 84 -20 0 -11 -27 -20 -60 -20 -33 0 -60 -9 -60 -21 0 -38 144 -84 227 -73 98 14 141 50 78 67 -85 22 -30 91 58 73 48 -9 56 -5 45 21 -7 20 -2 33 13 33 15 0 7 20 -21 50 -59 63 -42 82 38 41 134 -69 126 -264 -18 -419 -147 -157 -436 -123 -512 61 -85 202 1 383 182 385 28 0 16 -12 -37 -40z m1353 21 c164 -46 203 -193 104 -392 -107 -214 -395 -218 -518 -8 -158 270 75 494 414 400z m-2196 -399 c-11 -95 -6 -129 29 -198 23 -45 34 -82 25 -82 -52 0 -121 268 -96 369 25 99 56 32 42 -89z m649 -1395 c45 -52 147 -189 227 -303 189 -271 257 -327 414 -338 189 -14 358 111 480 356 60 121 178 280 207 280 56 0 26 -668 -35 -760 -160 -242 -476 -460 -666 -460 -252 0 -869 523 -810 687 14 39 24 178 24 336 0 149 6 276 13 284 30 30 69 8 146 -82z"/> <path d="M3848 4022 c-78 -36 -108 -72 -108 -133 0 -21 12 -24 48 -10 36 14 55 11 73 -10 31 -38 127 -37 159 1 17 21 34 24 61 10 48 -26 105 -26 89 0 -7 11 -49 39 -93 62 -100 50 -89 72 14 29 78 -33 103 -30 79 10 -47 75 -203 95 -322 41z"/> <path d="M3800 3816 c0 -56 245 -77 311 -27 45 34 49 33 -156 38 -85 1 -155 -3 -155 -11z"/> <path d="M3213 2985 c-62 -26 -85 -27 -116 -8 -81 51 -180 -36 -136 -118 18 -35 32 -39 85 -25 110 28 673 19 781 -12 83 -24 99 -24 115 0 50 80 -11 182 -81 133 -41 -29 -52 -28 -152 18 -87 40 -115 45 -150 27 -30 -17 -59 -17 -103 -1 -82 28 -149 24 -243 -14z"/> <path d="M3160 2802 c0 -42 163 -162 225 -166 134 -7 207 8 279 57 91 63 107 99 50 115 -70 19 -554 14 -554 -6z"/> </g> </svg> 